<svg width="18" height="20" viewBox="0 0 18 20" fill="none" xmlns="http://www.w3.org/2000/svg">
<path d="M16.4761 0.227766C16.6579 0.0649669 16.8848 -0.0151916 17.114 0.00238078C17.3432 0.0199532 17.5589 0.134044 17.7206 0.323176C17.8818 0.507435 17.98 0.752993 17.9972 1.01459C18.0145 1.27619 17.9496 1.5362 17.8145 1.74669C16.2654 4.16629 11.2595 11.8468 7.23626 16.5085C6.06748 17.8633 4.89871 18.8804 4.02295 19.554C3.18671 20.2009 2.10189 20.0005 1.39075 19.1781C0.705945 18.3843 0.518283 17.1802 1.04176 16.2337C1.61133 15.1995 2.5019 13.8046 3.74475 12.4612C7.89472 7.97696 14.4053 2.08063 16.4761 0.227766Z" fill="black"/>
</svg>
